<?xml version="1.0" encoding="UTF-8" standalone="no"?>
<svg
   id="Group_2346"
   data-name="Group 2346"
   width="89.067993"
   height="52.962002"
   viewBox="0 0 89.068 52.962"
   version="1.1"
   sodipodi:docname="FIRST_Horz_Reverse.svg"
   inkscape:version="1.1.1 (c3084ef, 2021-09-22)"
   xmlns:inkscape="http://www.inkscape.org/namespaces/inkscape"
   xmlns:sodipodi="http://sodipodi.sourceforge.net/DTD/sodipodi-0.dtd"
   xmlns="http://www.w3.org/2000/svg"
   xmlns:svg="http://www.w3.org/2000/svg">
  <defs
     id="defs71" />
  <sodipodi:namedview
     id="namedview69"
     pagecolor="#51b8ff"
     bordercolor="#666666"
     borderopacity="1.0"
     inkscape:pageshadow="2"
     inkscape:pageopacity="0"
     inkscape:pagecheckerboard="0"
     showgrid="false"
     width="202.06799px"
     inkscape:zoom="2.0174791"
     inkscape:cx="50.80598"
     inkscape:cy="55.514827"
     inkscape:window-width="1312"
     inkscape:window-height="872"
     inkscape:window-x="0"
     inkscape:window-y="0"
     inkscape:window-maximized="0"
     inkscape:current-layer="Group_2346" />
  <path
     id="Path_96"
     data-name="Path 96"
     d="m 2252.967,529.188 -0.621,3.252 6.2,-2.657 a 14.6,14.6 0 0 1 -0.945,-2.579 z"
     transform="translate(-2239.447,-493.309)"
     fill="#ffffff" />
  <line
     id="Line_10"
     data-name="Line 10"
     transform="translate(13.521,35.879)"
     fill="#ffffff"
     x1="0"
     y1="0"
     x2="0"
     y2="0" />
  <path
     id="Path_97"
     data-name="Path 97"
     d="m 2321.259,499.979 v -0.009 0.006 L 2296.168,476 l -8.437,8.789 a 41.266,41.266 0 0 0 -13.136,-2.433 33.252,33.252 0 0 0 -16.676,4.772 l -11.766,-11.151 v -0.013 h -0.013 l -0.01,-0.007 v 0.009 l -4.208,0.44 -9.083,49.737 4.228,0.44 v -0.015 l 19.167,-8.384 c 0.031,0.027 0.06,0.056 0.09,0.084 4.56,4.023 11.406,6.585 19.061,6.585 a 31.063,31.063 0 0 0 14.27,-3.335 l 7.706,7.4 23.893,-24.884 v -4.048 0 z M 2274.393,483.3 a 41.933,41.933 0 0 1 12.607,2.243 l -0.152,0.158 -3.729,3.883 -0.012,0.013 a 24.381,24.381 0 0 0 -7.718,-1.225 22.513,22.513 0 0 0 -12.442,3.516 l -0.048,-0.046 -3.912,-3.707 -0.349,-0.33 a 30.967,30.967 0 0 1 15.755,-4.505 z m 5.255,9.9 -7.3,7.6 -6.41,-6.074 a 23.8,23.8 0 0 1 9.447,-1.891 25.059,25.059 0 0 1 4.263,0.365 z m -42.389,32.322 8.746,-48.722 12.485,11.833 3.911,3.706 2.989,2.833 7.1,6.766 v 3.085 l 3.016,2.9 -9.422,4.289 a 17.058,17.058 0 0 1 -5.428,-3.552 c -0.033,-0.033 -0.06,-0.069 -0.093,-0.1 l 7.23,-3.378 -17,-15.834 -0.335,-0.337 -0.406,2.193 -4.016,20.93 -0.622,3.252 1.064,-0.456 0.01,-0.026 5.462,-2.34 a 17.516,17.516 0 0 0 3.6,4.968 z m 39.773,-16.131 4.072,3.909 a 24.705,24.705 0 0 1 -5.87,0.7 24.1,24.1 0 0 1 -7.182,-1.066 c -0.3,-0.094 -0.6,-0.2 -0.891,-0.3 l 9.022,-4.057 z m -17.975,-2.692 c -0.043,-0.065 -0.1,-0.128 -0.14,-0.2 a 10.048,10.048 0 0 1 -1.276,-2.957 c -0.026,-0.106 -0.037,-0.214 -0.059,-0.32 a 10.561,10.561 0 0 1 1.35,-2.913 l 4.738,4.691 z m -9.095,-2.288 c 0.01,0.028 0.014,0.056 0.019,0.085 -0.01,0.113 -0.019,0.219 -0.019,0.3 a 30.743,30.743 0 0 0 1.031,5.179 v 0 l -3.9,1.666 3.716,-19.367 1.526,1.51 a 14.94,14.94 0 0 0 -2.575,8.3 14.228,14.228 0 0 0 0.202,2.329 z m 39.16,12.561 a 27.067,27.067 0 0 1 -2.884,1.255 31.67,31.67 0 0 1 -11.005,1.911 30.365,30.365 0 0 1 -15.011,-3.771 21.529,21.529 0 0 1 -5.982,-4.917 16.908,16.908 0 0 1 -1.581,-2.251 14.325,14.325 0 0 1 -1.812,-4.936 13.213,13.213 0 0 1 -0.186,-2.176 13.98,13.98 0 0 1 2.24,-7.524 l 3.988,4.037 a 9.795,9.795 0 0 0 -0.121,5.156 10.946,10.946 0 0 0 1.389,3.223 13.2,13.2 0 0 0 1.859,2.312 18.927,18.927 0 0 0 7.767,4.5 25.009,25.009 0 0 0 7.449,1.106 25.525,25.525 0 0 0 6.138,-0.74 23.03,23.03 0 0 0 3.238,-1.063 18.1,18.1 0 0 0 5.976,-3.938 11.694,11.694 0 0 0 3.108,-5.4 9.929,9.929 0 0 0 0.291,-2.353 12.06,12.06 0 0 0 -2.2,-6.658 l 3.394,-3.535 a 16.167,16.167 0 0 1 4.626,10.877 13.415,13.415 0 0 1 -0.185,2.176 15.821,15.821 0 0 1 -4.913,8.817 23.176,23.176 0 0 1 -5.582,3.894 z m 0.982,-8.616 -5.917,-5.764 5.012,-5.221 a 12.255,12.255 0 0 1 3.8,5.214 9.1,9.1 0 0 1 -0.176,0.96 10.731,10.731 0 0 1 -2.723,4.813 z m 10.423,-4.132 a 14.232,14.232 0 0 0 0.174,-2.135 17.094,17.094 0 0 0 -4.937,-11.553 l 0.806,-0.84 12.538,12.039 -10.382,10.809 a 22.319,22.319 0 0 0 1.816,-7.993 c 0,-0.095 -0.01,-0.206 -0.014,-0.326 z m -3.162,20.626 -5.1,-4.893 a 20.429,20.429 0 0 0 5,-4.77 c 0.018,-0.024 0.034,-0.052 0.052,-0.077 l 12.393,-12.868 0.367,-0.4 1.618,-1.684 -15.135,-14.53 -3.4,3.54 -3.752,3.91 -2.556,2.663 -4.82,5.019 v 0 l -0.417,0.435 1.406,1.346 6.522,6.359 a 17.507,17.507 0 0 1 -5.288,3.36 v 0 l -4.3,-4.131 -4.225,-4.059 -2.876,-2.725 6.832,-7.116 3.431,-3.575 3.729,-3.883 9.318,-9.7 24.531,23.479 z"
     transform="translate(-2232.841,-475.954)"
     fill="#ffffff" />
</svg>
